<?xml version="1.0" encoding="UTF-8"?>
<svg id="Layer_1" xmlns="http://www.w3.org/2000/svg" version="1.1" viewBox="0 0 300 300">
  <!-- Generator: Adobe Illustrator 29.8.2, SVG Export Plug-In . SVG Version: 2.1.1 Build 3)  -->
  <defs>
    <style>
      .st0 {
        fill: #d1d3d4;
      }

      .st1 {
        fill: #bcbec0;
      }
    </style>
  </defs>
  <path id="_x3C_Player_Background_x3E_" class="st1" d="M126.1,6.5c-10.1,1.6-79.4,13.3-108.1,70.3-10.8,21.5-10.7,42.8-10.5,85.5.3,51.4.5,80.4,20.9,102.3,17.5,18.8,40.8,22.7,75,28.5,34.6,5.8,62.7,11.3,95.9,0,39.7-13.5,75.8-46.8,90.7-91.9,16.6-50.2-.4-92.8-5.8-105.8-5.5-13.2-21-48.9-60.5-72.1C181.6-1.4,139.8,4.4,126.1,6.5Z"/>
  <path id="_x3C_Photo_button_x3E_" class="st0" d="M102.6,244.9c3.7-15.4,27.4-18.3,30.5-18.6,20.6-2.3,45,9.4,45.7,22,.9,15.3-33,37.2-56.5,27.1-11.2-4.8-22.8-18.1-19.8-30.5Z"/>
  <rect id="_x3C_Video_Area_x3E_" class="st0" x="38.4" y="74.4" width="217.6" height="122.4"/>
</svg>